<svg xmlns="http://www.w3.org/2000/svg" viewBox="0 0 32 32">
  <defs>
    <linearGradient id="bg" x1="0" y1="0" x2="1" y2="1">
      <stop offset="0%" stop-color="#059669"/>
      <stop offset="100%" stop-color="#047857"/>
    </linearGradient>
  </defs>
  <rect width="32" height="32" rx="8" fill="url(#bg)"/>
  <!-- Open book icon -->
  <path d="M7 10c2-1.5 4.5-2 9-1v14c-4.5-1-7-.5-9 1V10z" fill="#FFFFFF" opacity="0.85"/>
  <path d="M25 10c-2-1.5-4.5-2-9-1v14c4.5-1 7-.5 9 1V10z" fill="#FFFFFF" opacity="0.85"/>
  <path d="M16 9v14" stroke="#047857" stroke-width="0.5" opacity="0.4"/>
  <!-- Book lines -->
  <line x1="9" y1="12" x2="14" y2="11.5" stroke="#059669" stroke-width="0.7" stroke-linecap="round" opacity="0.5"/>
  <line x1="9" y1="14.5" x2="14" y2="14" stroke="#059669" stroke-width="0.7" stroke-linecap="round" opacity="0.5"/>
  <line x1="9" y1="17" x2="14" y2="16.5" stroke="#059669" stroke-width="0.7" stroke-linecap="round" opacity="0.5"/>
  <line x1="18" y1="11.5" x2="23" y2="12" stroke="#059669" stroke-width="0.7" stroke-linecap="round" opacity="0.5"/>
  <line x1="18" y1="14" x2="23" y2="14.5" stroke="#059669" stroke-width="0.7" stroke-linecap="round" opacity="0.5"/>
  <line x1="18" y1="16.5" x2="23" y2="17" stroke="#059669" stroke-width="0.7" stroke-linecap="round" opacity="0.5"/>
</svg>
